<mxfile host="app.diagrams.net" modified="2022-04-04T06:56:06.509Z" agent="5.0 (Windows NT 10.0; WOW64) AppleWebKit/537.36 (KHTML, like Gecko) Chrome/99.0.4844.74 Safari/537.36" etag="ku6qQpmkcCx3gP0tCfW1" version="17.3.0" type="github">
  <diagram id="qvrgE9RsfLInDcwIYguw" name="Page-1">
    <mxGraphModel dx="1422" dy="762" grid="1" gridSize="10" guides="1" tooltips="1" connect="1" arrows="1" fold="1" page="1" pageScale="1" pageWidth="827" pageHeight="1169" math="0" shadow="0">
      <root>
        <mxCell id="0" />
        <mxCell id="1" parent="0" />
        <mxCell id="BxIIAlPTyecSCrshHLg6-3" value="&lt;font style=&quot;font-size: 11px&quot;&gt;&lt;b style=&quot;font-size: 11px&quot;&gt;&lt;span style=&quot;color: rgb(0 , 0 , 0) ; font-family: &amp;#34;jetbrains mono&amp;#34; , monospace&quot;&gt;- Контейнерная компонента - обертка над презентационной, которая только отрисовывает презентационную. Данные со store помещаются только в контейнерную.&lt;br&gt;&lt;/span&gt;&lt;/b&gt;&lt;/font&gt;" style="text;html=1;strokeColor=none;fillColor=none;align=left;verticalAlign=middle;whiteSpace=wrap;rounded=0;labelBackgroundColor=none;labelBorderColor=none;fontFamily=Helvetica;fontSize=12;fontColor=#333333;" vertex="1" parent="1">
          <mxGeometry x="19.130000000000003" y="140" width="529" height="70" as="geometry" />
        </mxCell>
        <mxCell id="BxIIAlPTyecSCrshHLg6-21" value="React" style="text;html=1;strokeColor=#82b366;fillColor=#D5E8D4;align=left;verticalAlign=middle;whiteSpace=wrap;rounded=0;glass=0;shadow=1;" vertex="1" parent="1">
          <mxGeometry x="19.13" y="100" width="83" height="20" as="geometry" />
        </mxCell>
        <mxCell id="BxIIAlPTyecSCrshHLg6-22" value="&lt;b&gt;организация FLUX архитектуры&lt;/b&gt;" style="rounded=0;whiteSpace=wrap;html=1;fillColor=#D4E1F5;shadow=0;strokeColor=#000000;" vertex="1" parent="1">
          <mxGeometry x="19.13" y="20" width="210.87" height="40" as="geometry" />
        </mxCell>
        <mxCell id="BxIIAlPTyecSCrshHLg6-23" value="&lt;b&gt;UI&lt;/b&gt;" style="rounded=0;whiteSpace=wrap;html=1;fillColor=#FFFFFF;strokeColor=#000000;" vertex="1" parent="1">
          <mxGeometry x="1550" y="20" width="120" height="40" as="geometry" />
        </mxCell>
        <mxCell id="BxIIAlPTyecSCrshHLg6-37" value="React-Redux" style="text;html=1;strokeColor=#82b366;fillColor=#D5E8D4;align=left;verticalAlign=middle;whiteSpace=wrap;rounded=0;glass=0;shadow=1;" vertex="1" parent="1">
          <mxGeometry x="710" y="100" width="83" height="20" as="geometry" />
        </mxCell>
        <mxCell id="BxIIAlPTyecSCrshHLg6-38" value="React-Redux.toolkit" style="text;html=1;strokeColor=#82b366;fillColor=#D5E8D4;align=left;verticalAlign=middle;whiteSpace=wrap;rounded=0;glass=0;shadow=1;" vertex="1" parent="1">
          <mxGeometry x="1160" y="100" width="120" height="20" as="geometry" />
        </mxCell>
      </root>
    </mxGraphModel>
  </diagram>
</mxfile>
